<svg width="332" height="189" viewBox="0 0 332 189" fill="none" xmlns="http://www.w3.org/2000/svg">
<path d="M21.2793 117.56C21.4993 117.56 21.7093 117.65 21.9093 117.83C22.1093 118.01 22.2093 118.3 22.2093 118.7C22.2093 119.02 21.9693 119.4 21.4893 119.84C21.0093 120.26 20.3893 120.67 19.6293 121.07C18.8893 121.47 18.0893 121.8 17.2293 122.06C16.3693 122.34 15.5593 122.48 14.7993 122.48C13.7193 122.48 12.6993 122.2 11.7393 121.64C10.7993 121.08 10.0293 120.27 9.42927 119.21C8.82927 118.13 8.52927 116.82 8.52927 115.28C8.52927 113.92 8.77927 112.56 9.27927 111.2C9.77927 109.84 10.4393 108.53 11.2593 107.27C12.0993 106.01 13.0193 104.84 14.0193 103.76C15.0393 102.68 16.0593 101.74 17.0793 100.94C18.0993 100.14 19.0493 99.52 19.9293 99.08C20.8293 98.62 21.5693 98.39 22.1493 98.39C22.5493 98.39 22.8693 98.54 23.1093 98.84C23.3693 99.12 23.4993 99.43 23.4993 99.77C23.4993 99.97 23.4393 100.17 23.3193 100.37C23.2193 100.57 23.0393 100.73 22.7793 100.85C21.4793 101.49 20.1593 102.31 18.8193 103.31C17.4793 104.31 16.2393 105.45 15.0993 106.73C13.9593 107.99 13.0393 109.36 12.3393 110.84C11.6393 112.3 11.2893 113.84 11.2893 115.46C11.2893 116.86 11.6193 117.93 12.2793 118.67C12.9393 119.39 13.8393 119.75 14.9793 119.75C15.5793 119.75 16.1993 119.64 16.8393 119.42C17.4993 119.2 18.1193 118.95 18.6993 118.67C19.2993 118.37 19.8193 118.11 20.2593 117.89C20.7193 117.67 21.0593 117.56 21.2793 117.56ZM47.2572 123.08C46.6772 123.08 46.2672 122.89 46.0272 122.51C45.7872 122.13 45.6672 121.48 45.6672 120.56C45.6672 119.82 45.7572 118.9 45.9372 117.8C46.1372 116.7 46.3772 115.49 46.6572 114.17C46.9372 112.83 47.2272 111.45 47.5272 110.03C46.3072 111.69 44.9572 113.02 43.4772 114.02C42.0172 115 40.3972 115.64 38.6172 115.94C38.1972 116.92 37.7172 117.81 37.1772 118.61C36.6372 119.41 36.0472 120.05 35.4072 120.53C34.7672 121.01 34.0972 121.25 33.3972 121.25C32.5372 121.25 31.8072 120.9 31.2072 120.2C30.6272 119.5 30.3372 118.48 30.3372 117.14C30.3372 116.22 30.4572 115.4 30.6972 114.68C30.9372 113.94 31.2072 113.41 31.5072 113.09C31.2272 112.35 31.0872 111.5 31.0872 110.54C31.0872 109.36 31.3572 108.32 31.8972 107.42C32.4372 106.5 33.1572 105.79 34.0572 105.29C34.9572 104.77 35.9272 104.51 36.9672 104.51C37.8072 104.51 38.5572 104.9 39.2172 105.68C39.8772 106.46 40.2072 107.58 40.2072 109.04C40.2072 110.4 39.9672 111.91 39.4872 113.57C40.5872 113.15 41.6872 112.51 42.7872 111.65C43.9072 110.79 44.9872 109.76 46.0272 108.56C47.0672 107.36 48.0072 106.03 48.8472 104.57C49.0672 104.21 49.3772 104.03 49.7772 104.03C50.1372 104.03 50.4172 104.14 50.6172 104.36C50.8372 104.56 50.9472 104.84 50.9472 105.2C50.9472 105.3 50.8872 105.64 50.7672 106.22C50.6672 106.8 50.5272 107.54 50.3472 108.44C50.1872 109.34 50.0072 110.33 49.8072 111.41C49.6072 112.49 49.4072 113.58 49.2072 114.68C49.0272 115.78 48.8772 116.8 48.7572 117.74C49.2172 116.86 49.7372 115.9 50.3172 114.86C50.8972 113.82 51.4872 112.8 52.0872 111.8C52.7072 110.78 53.2972 109.85 53.8572 109.01C54.4372 108.17 54.9472 107.5 55.3872 107C55.8472 106.48 56.2072 106.22 56.4672 106.22C56.9472 106.22 57.3672 106.38 57.7272 106.7C58.0872 107.02 58.2672 107.35 58.2672 107.69C58.2672 108.15 58.2172 108.85 58.1172 109.79C58.0172 110.71 57.8972 111.75 57.7572 112.91C57.6172 114.07 57.4772 115.23 57.3372 116.39C57.1972 117.55 57.0772 118.6 56.9772 119.54C56.8772 120.48 56.8272 121.18 56.8272 121.64C56.8272 121.94 56.6972 122.21 56.4372 122.45C56.1772 122.69 55.8872 122.81 55.5672 122.81C55.3472 122.81 55.1572 122.74 54.9972 122.6C54.8572 122.48 54.7472 122.2 54.6672 121.76C54.5872 121.32 54.5472 120.64 54.5472 119.72C54.5472 118.82 54.5772 117.84 54.6372 116.78C54.6972 115.7 54.7772 114.63 54.8772 113.57C54.9972 112.49 55.1272 111.52 55.2672 110.66C54.8072 111.42 54.2772 112.33 53.6772 113.39C53.0972 114.45 52.4872 115.54 51.8472 116.66C51.2072 117.78 50.5872 118.83 49.9872 119.81C49.3872 120.79 48.8472 121.58 48.3672 122.18C47.8872 122.78 47.5172 123.08 47.2572 123.08ZM36.8472 114.05C37.0872 113.29 37.2772 112.48 37.4172 111.62C37.5772 110.74 37.6572 109.86 37.6572 108.98C37.6572 108.46 37.5572 108.04 37.3572 107.72C37.1572 107.4 36.8872 107.24 36.5472 107.24C36.0272 107.24 35.5172 107.39 35.0172 107.69C34.5172 107.97 34.0972 108.37 33.7572 108.89C33.4372 109.41 33.2772 110.03 33.2772 110.75C33.2772 111.65 33.6172 112.42 34.2972 113.06C34.9972 113.68 35.8472 114.01 36.8472 114.05ZM36.0372 116.12C34.6772 116.06 33.5772 115.66 32.7372 114.92C32.6972 115.18 32.6572 115.43 32.6172 115.67C32.5772 115.89 32.5572 116.11 32.5572 116.33C32.5572 116.95 32.6572 117.44 32.8572 117.8C33.0772 118.14 33.4072 118.31 33.8472 118.31C34.2072 118.31 34.5772 118.11 34.9572 117.71C35.3372 117.31 35.6972 116.78 36.0372 116.12ZM65.4163 121.31C64.8363 121.31 64.3163 120.98 63.8563 120.32C63.3963 119.66 63.1663 118.81 63.1663 117.77C63.1663 116.63 63.3163 115.41 63.6163 114.11C63.9363 112.81 64.3263 111.49 64.7863 110.15C65.2463 108.79 65.6963 107.48 66.1363 106.22C66.2363 105.96 66.3763 105.77 66.5563 105.65C66.7563 105.51 67.0563 105.44 67.4563 105.44C68.1763 105.44 68.5363 105.79 68.5363 106.49C68.5363 106.65 68.4563 107.01 68.2963 107.57C68.1363 108.13 67.9263 108.82 67.6663 109.64C67.4263 110.46 67.1763 111.35 66.9163 112.31C66.6563 113.25 66.4263 114.2 66.2263 115.16C66.0263 116.12 65.8863 117.01 65.8063 117.83C66.1263 117.49 66.4863 116.97 66.8863 116.27C67.3063 115.57 67.7563 114.78 68.2363 113.9C68.7163 113 69.2163 112.1 69.7363 111.2C70.2563 110.28 70.7763 109.44 71.2963 108.68C71.8363 107.9 72.3563 107.28 72.8563 106.82C73.3763 106.34 73.8563 106.1 74.2963 106.1C74.9363 106.1 75.4763 106.3 75.9163 106.7C76.3763 107.08 76.7263 107.76 76.9663 108.74C77.2263 109.7 77.3563 111.06 77.3563 112.82C77.3563 113.76 77.4463 114.64 77.6263 115.46C77.8263 116.28 78.1363 116.94 78.5563 117.44C78.9963 117.92 79.5563 118.16 80.2363 118.16C81.2563 118.16 82.1663 117.98 82.9663 117.62C83.7663 117.24 84.4563 116.82 85.0363 116.36C85.6363 115.88 86.1363 115.46 86.5363 115.1C86.9363 114.72 87.2463 114.53 87.4663 114.53C87.9263 114.53 88.1563 114.77 88.1563 115.25C88.1563 115.45 88.0063 115.77 87.7063 116.21C87.4263 116.63 87.0263 117.11 86.5063 117.65C86.0063 118.17 85.4263 118.68 84.7663 119.18C84.1263 119.66 83.4363 120.06 82.6963 120.38C81.9763 120.7 81.2463 120.86 80.5063 120.86C79.1263 120.86 77.9963 120.59 77.1163 120.05C76.2563 119.51 75.6163 118.62 75.1963 117.38C74.7963 116.14 74.5963 114.48 74.5963 112.4C74.5963 111.26 74.5263 110.43 74.3863 109.91C74.2663 109.37 74.0363 109.01 73.6963 108.83C73.4563 109.25 73.1463 109.85 72.7663 110.63C72.3863 111.39 71.9463 112.24 71.4463 113.18C70.9663 114.12 70.4563 115.07 69.9163 116.03C69.3963 116.97 68.8663 117.84 68.3263 118.64C67.7863 119.44 67.2663 120.09 66.7663 120.59C66.2663 121.07 65.8163 121.31 65.4163 121.31ZM98.5321 109.07C98.5321 109.71 98.3321 110.34 97.9321 110.96C97.5321 111.56 97.0021 112.14 96.3421 112.7C95.6821 113.24 94.9521 113.75 94.1521 114.23C93.3521 114.71 92.5521 115.13 91.7521 115.49C90.9521 115.85 90.2221 116.14 89.5621 116.36C89.4021 117.14 89.3221 117.83 89.3221 118.43C89.3221 118.81 89.4121 119.08 89.5921 119.24C89.7721 119.4 90.0521 119.48 90.4321 119.48C91.2721 119.48 92.1621 119.33 93.1021 119.03C94.0421 118.73 95.0021 118.34 95.9821 117.86C96.9621 117.38 97.9021 116.87 98.8021 116.33C99.7021 115.79 100.522 115.28 101.262 114.8C102.022 114.32 102.652 113.93 103.152 113.63C103.652 113.33 103.982 113.18 104.142 113.18C104.382 113.18 104.562 113.26 104.682 113.42C104.822 113.56 104.892 113.73 104.892 113.93C104.892 114.09 104.642 114.4 104.142 114.86C103.662 115.32 103.012 115.86 102.192 116.48C101.372 117.08 100.452 117.7 99.4321 118.34C98.4121 118.98 97.3521 119.58 96.2521 120.14C95.1721 120.7 94.1221 121.15 93.1021 121.49C92.1021 121.83 91.2021 122 90.4021 122C89.3621 122 88.5521 121.61 87.9721 120.83C87.3921 120.05 87.1021 118.84 87.1021 117.2C87.1021 116.1 87.2421 114.99 87.5221 113.87C87.8221 112.75 88.2221 111.68 88.7221 110.66C89.2421 109.62 89.8121 108.7 90.4321 107.9C91.0721 107.08 91.7421 106.44 92.4421 105.98C93.1421 105.5 93.8221 105.26 94.4821 105.26C95.7421 105.26 96.7321 105.61 97.4521 106.31C98.1721 107.01 98.5321 107.93 98.5321 109.07ZM90.1921 114.05C90.8121 113.67 91.4521 113.27 92.1121 112.85C92.7721 112.43 93.3821 112 93.9421 111.56C94.5021 111.12 94.9521 110.66 95.2921 110.18C95.6521 109.68 95.8321 109.17 95.8321 108.65C95.8321 107.91 95.4321 107.54 94.6321 107.54C94.1321 107.54 93.6021 107.86 93.0421 108.5C92.5021 109.12 91.9821 109.93 91.4821 110.93C90.9821 111.93 90.5521 112.97 90.1921 114.05ZM107.188 122.42C106.208 122.42 105.358 122.2 104.638 121.76C103.938 121.3 103.398 120.71 103.018 119.99C102.638 119.27 102.448 118.53 102.448 117.77C102.448 116.17 102.728 114.71 103.288 113.39C103.848 112.05 104.548 110.87 105.388 109.85C106.248 108.81 107.128 107.93 108.028 107.21C108.948 106.49 109.778 105.95 110.518 105.59C111.278 105.21 111.818 105.02 112.138 105.02C112.778 105.02 113.098 105.34 113.098 105.98C113.098 106.28 112.898 106.63 112.498 107.03C112.098 107.41 111.588 107.86 110.968 108.38C110.348 108.9 109.688 109.49 108.988 110.15C108.288 110.79 107.628 111.52 107.008 112.34C106.388 113.14 105.878 114.04 105.478 115.04C105.078 116.02 104.878 117.1 104.878 118.28C104.878 119.48 105.368 120.08 106.348 120.08C107.248 120.08 108.168 119.91 109.108 119.57C110.068 119.23 111.008 118.79 111.928 118.25C112.868 117.69 113.768 117.11 114.628 116.51C115.488 115.91 116.268 115.34 116.968 114.8C117.668 114.24 118.258 113.79 118.738 113.45C119.218 113.11 119.558 112.94 119.758 112.94C120.158 112.94 120.358 113.16 120.358 113.6C120.358 113.94 120.128 114.39 119.668 114.95C119.208 115.51 118.588 116.12 117.808 116.78C117.028 117.44 116.158 118.11 115.198 118.79C114.238 119.45 113.268 120.06 112.288 120.62C111.308 121.16 110.368 121.6 109.468 121.94C108.588 122.26 107.828 122.42 107.188 122.42ZM116.54 112.4C116 112.36 115.75 112.01 115.79 111.35C115.81 111.19 115.92 111 116.12 110.78C116.32 110.54 116.55 110.41 116.81 110.39C117.43 110.33 118.19 110.24 119.09 110.12C120.01 109.98 121.02 109.82 122.12 109.64C122.32 108.66 122.56 107.63 122.84 106.55C123.12 105.47 123.43 104.42 123.77 103.4C124.11 102.36 124.47 101.42 124.85 100.58C125.23 99.74 125.63 99.08 126.05 98.6C126.27 98.38 126.47 98.23 126.65 98.15C126.83 98.05 126.99 98 127.13 98C127.41 98 127.63 98.12 127.79 98.36C127.97 98.6 128.06 98.87 128.06 99.17C128.06 99.33 128.03 99.49 127.97 99.65C127.57 100.77 127.14 102.15 126.68 103.79C126.22 105.43 125.73 107.22 125.21 109.16C127.05 108.86 128.89 108.54 130.73 108.2C132.57 107.86 134.15 107.55 135.47 107.27C135.85 107.11 136.14 107.14 136.34 107.36C136.56 107.58 136.67 107.8 136.67 108.02C136.67 108.3 136.59 108.51 136.43 108.65C136.29 108.79 136.14 108.91 135.98 109.01L135.95 109.04C135.55 109.2 134.95 109.39 134.15 109.61C133.35 109.81 132.43 110.03 131.39 110.27C130.35 110.49 129.24 110.71 128.06 110.93C126.9 111.15 125.75 111.35 124.61 111.53C124.15 113.29 123.68 115.1 123.2 116.96C122.74 118.8 122.28 120.61 121.82 122.39C121.62 123.11 121.39 123.56 121.13 123.74C120.89 123.94 120.63 124.04 120.35 124.04C120.03 124.04 119.75 123.92 119.51 123.68C119.29 123.44 119.26 122.95 119.42 122.21L121.61 111.98C120.41 112.16 119.35 112.29 118.43 112.37C117.53 112.45 116.9 112.46 116.54 112.4ZM145.378 109.07C145.378 109.71 145.178 110.34 144.778 110.96C144.378 111.56 143.848 112.14 143.188 112.7C142.528 113.24 141.798 113.75 140.998 114.23C140.198 114.71 139.398 115.13 138.598 115.49C137.798 115.85 137.068 116.14 136.408 116.36C136.248 117.14 136.168 117.83 136.168 118.43C136.168 118.81 136.258 119.08 136.438 119.24C136.618 119.4 136.898 119.48 137.278 119.48C138.118 119.48 139.008 119.33 139.948 119.03C140.888 118.73 141.848 118.34 142.828 117.86C143.808 117.38 144.748 116.87 145.648 116.33C146.548 115.79 147.368 115.28 148.108 114.8C148.868 114.32 149.498 113.93 149.998 113.63C150.498 113.33 150.828 113.18 150.988 113.18C151.228 113.18 151.408 113.26 151.528 113.42C151.668 113.56 151.738 113.73 151.738 113.93C151.738 114.09 151.488 114.4 150.988 114.86C150.508 115.32 149.858 115.86 149.038 116.48C148.218 117.08 147.298 117.7 146.278 118.34C145.258 118.98 144.198 119.58 143.098 120.14C142.018 120.7 140.968 121.15 139.948 121.49C138.948 121.83 138.048 122 137.248 122C136.208 122 135.398 121.61 134.818 120.83C134.238 120.05 133.948 118.84 133.948 117.2C133.948 116.1 134.088 114.99 134.368 113.87C134.668 112.75 135.068 111.68 135.568 110.66C136.088 109.62 136.658 108.7 137.278 107.9C137.918 107.08 138.588 106.44 139.288 105.98C139.988 105.5 140.668 105.26 141.328 105.26C142.588 105.26 143.578 105.61 144.298 106.31C145.018 107.01 145.378 107.93 145.378 109.07ZM137.038 114.05C137.658 113.67 138.298 113.27 138.958 112.85C139.618 112.43 140.228 112 140.788 111.56C141.348 111.12 141.798 110.66 142.138 110.18C142.498 109.68 142.678 109.17 142.678 108.65C142.678 107.91 142.278 107.54 141.478 107.54C140.978 107.54 140.448 107.86 139.888 108.5C139.348 109.12 138.828 109.93 138.328 110.93C137.828 111.93 137.398 112.97 137.038 114.05ZM161.449 122.33C161.269 122.33 160.909 122.32 160.369 122.3C159.849 122.28 159.229 122.25 158.509 122.21C157.789 122.17 157.039 122.13 156.259 122.09C155.499 122.05 154.779 122.02 154.099 122C153.439 121.98 152.889 121.97 152.449 121.97C151.909 121.97 151.459 121.79 151.099 121.43C150.759 121.07 150.589 120.57 150.589 119.93C150.589 119.51 150.779 118.97 151.159 118.31C151.539 117.65 152.049 116.92 152.689 116.12C153.329 115.3 154.039 114.46 154.819 113.6C155.619 112.74 156.429 111.9 157.249 111.08C158.069 110.26 158.859 109.5 159.619 108.8C160.379 108.1 161.039 107.53 161.599 107.09C160.279 107.25 158.989 107.46 157.729 107.72C156.469 107.96 155.369 108.18 154.429 108.38C153.509 108.58 152.889 108.68 152.569 108.68C152.169 108.68 151.849 108.57 151.609 108.35C151.369 108.11 151.249 107.79 151.249 107.39C151.249 107.17 151.489 106.95 151.969 106.73C152.469 106.51 153.129 106.3 153.949 106.1C154.769 105.9 155.669 105.73 156.649 105.59C157.649 105.43 158.659 105.31 159.679 105.23C160.699 105.15 161.649 105.11 162.529 105.11C163.129 105.11 163.609 105.29 163.969 105.65C164.349 106.01 164.539 106.39 164.539 106.79C164.539 106.95 164.309 107.31 163.849 107.87C163.389 108.43 162.789 109.11 162.049 109.91C161.309 110.71 160.499 111.57 159.619 112.49C158.739 113.41 157.879 114.33 157.039 115.25C156.199 116.15 155.449 116.99 154.789 117.77C154.129 118.53 153.649 119.16 153.349 119.66C153.889 119.64 154.529 119.62 155.269 119.6C156.009 119.58 156.779 119.56 157.579 119.54C158.379 119.5 159.139 119.47 159.859 119.45C160.579 119.41 161.189 119.38 161.689 119.36C162.209 119.34 162.549 119.33 162.709 119.33C163.509 119.33 163.909 119.66 163.909 120.32C163.909 120.82 163.679 121.28 163.219 121.7C162.759 122.12 162.169 122.33 161.449 122.33ZM169.254 111.5C168.714 111.5 168.234 111.38 167.814 111.14C167.414 110.88 167.214 110.6 167.214 110.3C167.214 110.12 167.524 109.92 168.144 109.7C168.784 109.46 169.614 109.23 170.634 109.01C171.654 108.79 172.764 108.61 173.964 108.47C175.184 108.33 176.374 108.26 177.534 108.26C178.534 108.26 179.224 108.39 179.604 108.65C179.984 108.89 180.174 109.16 180.174 109.46C180.174 109.7 179.824 109.95 179.124 110.21C178.444 110.45 177.554 110.67 176.454 110.87C175.374 111.05 174.194 111.2 172.914 111.32C171.654 111.44 170.434 111.5 169.254 111.5ZM186.653 121.25C186.353 121.25 186.053 121.03 185.753 120.59C185.473 120.15 185.263 119.53 185.123 118.73C184.983 117.89 184.853 116.93 184.733 115.85C184.613 114.77 184.513 113.71 184.433 112.67C184.353 111.63 184.293 110.71 184.253 109.91C184.213 109.11 184.193 108.57 184.193 108.29C184.193 107.25 184.353 106.48 184.673 105.98C185.013 105.46 185.443 105.2 185.963 105.2C186.323 105.2 186.583 105.3 186.743 105.5C186.903 105.68 186.983 106.1 186.983 106.76C186.983 107.2 186.993 107.77 187.013 108.47C187.033 109.17 187.063 109.93 187.103 110.75C187.143 111.73 187.183 112.77 187.223 113.87C187.263 114.95 187.293 116.02 187.313 117.08C187.793 116.28 188.343 115.39 188.963 114.41C189.603 113.43 190.253 112.43 190.913 111.41C191.573 110.37 192.213 109.38 192.833 108.44C193.453 107.5 194.003 106.68 194.483 105.98C194.963 105.28 195.333 104.77 195.593 104.45C195.933 104.05 196.243 103.77 196.523 103.61C196.823 103.45 197.083 103.37 197.303 103.37C197.603 103.37 197.843 103.48 198.023 103.7C198.223 103.92 198.323 104.23 198.323 104.63C198.323 104.87 198.273 105.14 198.173 105.44C198.093 105.72 197.943 106.01 197.723 106.31C197.183 107.13 196.533 108.09 195.773 109.19C195.013 110.29 194.223 111.43 193.403 112.61C192.583 113.79 191.783 114.94 191.003 116.06C190.223 117.16 189.543 118.13 188.963 118.97C187.943 120.49 187.173 121.25 186.653 121.25ZM203.353 122.3C202.173 122.3 201.243 121.85 200.563 120.95C199.883 120.05 199.543 118.88 199.543 117.44C199.543 116.92 199.613 116.37 199.753 115.79C199.913 115.19 200.113 114.65 200.353 114.17C200.213 114.03 200.103 113.84 200.023 113.6C199.943 113.34 199.903 113.02 199.903 112.64C199.903 111.46 200.103 110.38 200.503 109.4C200.903 108.42 201.433 107.57 202.093 106.85C202.753 106.11 203.483 105.54 204.283 105.14C205.103 104.74 205.933 104.54 206.773 104.54C208.153 104.54 209.273 105.04 210.133 106.04C210.993 107.02 211.423 108.52 211.423 110.54C211.423 111.6 211.263 112.68 210.943 113.78C210.643 114.88 210.223 115.94 209.683 116.96C209.163 117.98 208.553 118.89 207.853 119.69C207.173 120.49 206.443 121.13 205.663 121.61C204.903 122.07 204.133 122.3 203.353 122.3ZM202.333 113.15C202.453 113.31 202.513 113.52 202.513 113.78C202.513 114.08 202.453 114.38 202.333 114.68C202.233 114.98 202.123 115.39 202.003 115.91C201.883 116.43 201.823 117.17 201.823 118.13C201.823 119.09 202.203 119.57 202.963 119.57C203.803 119.57 204.583 119.24 205.303 118.58C206.023 117.9 206.663 117.03 207.223 115.97C207.783 114.91 208.213 113.78 208.513 112.58C208.833 111.36 208.993 110.21 208.993 109.13C208.993 108.43 208.863 107.94 208.603 107.66C208.343 107.36 207.873 107.21 207.193 107.21C206.493 107.21 205.763 107.45 205.003 107.93C204.263 108.39 203.643 109.02 203.143 109.82C202.643 110.62 202.393 111.52 202.393 112.52C202.393 112.74 202.373 112.95 202.333 113.15ZM224.265 122.72C223.925 122.72 223.635 122.57 223.395 122.27C223.155 121.97 223.035 121.53 223.035 120.95C223.035 120.27 223.135 119.3 223.335 118.04C223.555 116.78 223.875 115.11 224.295 113.03C223.755 114.31 223.155 115.52 222.495 116.66C221.855 117.8 221.175 118.73 220.455 119.45C219.735 120.17 218.995 120.53 218.235 120.53C217.495 120.53 216.835 120.24 216.255 119.66C215.695 119.08 215.415 118.06 215.415 116.6C215.415 115.78 215.485 114.86 215.625 113.84C215.765 112.8 215.945 111.77 216.165 110.75C216.385 109.73 216.605 108.82 216.825 108.02C217.045 107.2 217.245 106.6 217.425 106.22C217.565 105.9 217.705 105.69 217.845 105.59C217.985 105.47 218.175 105.41 218.415 105.41C218.695 105.41 218.995 105.53 219.315 105.77C219.635 106.01 219.795 106.41 219.795 106.97C219.795 107.11 219.725 107.44 219.585 107.96C219.465 108.46 219.305 109.08 219.105 109.82C218.925 110.54 218.735 111.32 218.535 112.16C218.335 113 218.165 113.84 218.025 114.68C217.905 115.52 217.845 116.29 217.845 116.99C217.845 117.37 217.885 117.68 217.965 117.92C218.045 118.16 218.245 118.28 218.565 118.28C218.845 118.28 219.195 118 219.615 117.44C220.055 116.88 220.525 116.14 221.025 115.22C221.545 114.28 222.075 113.24 222.615 112.1C223.175 110.96 223.715 109.79 224.235 108.59C224.775 107.39 225.265 106.25 225.705 105.17C225.865 104.81 226.035 104.59 226.215 104.51C226.395 104.41 226.595 104.36 226.815 104.36C227.175 104.36 227.495 104.51 227.775 104.81C228.075 105.09 228.225 105.46 228.225 105.92C228.225 106.22 228.165 106.74 228.045 107.48C227.945 108.22 227.795 109.09 227.595 110.09C227.415 111.07 227.205 112.11 226.965 113.21C226.745 114.31 226.525 115.4 226.305 116.48C226.085 117.54 225.875 118.51 225.675 119.39C225.495 120.27 225.345 120.98 225.225 121.52C225.125 122.02 224.985 122.34 224.805 122.48C224.645 122.64 224.465 122.72 224.265 122.72ZM236.425 122.66C235.985 122.66 235.645 122.53 235.405 122.27C235.185 122.03 235.075 121.75 235.075 121.43C235.075 121.15 235.195 120.89 235.435 120.65C235.695 120.39 236.045 120.16 236.485 119.96C237.285 119.54 238.035 119.12 238.735 118.7C239.455 118.28 240.035 117.83 240.475 117.35C240.915 116.87 241.135 116.36 241.135 115.82C241.135 115.36 240.985 115.01 240.685 114.77C240.385 114.51 239.975 114.38 239.455 114.38C239.155 114.38 238.735 114.44 238.195 114.56C237.655 114.66 237.065 114.78 236.425 114.92C235.805 115.04 235.195 115.16 234.595 115.28C233.995 115.38 233.485 115.43 233.065 115.43C232.305 115.43 231.735 115.25 231.355 114.89C230.975 114.51 230.785 114 230.785 113.36C230.785 113.04 230.975 112.56 231.355 111.92C231.735 111.28 232.235 110.57 232.855 109.79C233.495 108.99 234.195 108.19 234.955 107.39C235.715 106.59 236.485 105.85 237.265 105.17C238.065 104.49 238.805 103.94 239.485 103.52C240.185 103.1 240.765 102.89 241.225 102.89C241.685 102.89 242.035 103.04 242.275 103.34C242.515 103.64 242.635 104.02 242.635 104.48C242.635 104.84 242.575 105.15 242.455 105.41C242.335 105.65 242.085 105.84 241.705 105.98C241.345 106.12 240.785 106.2 240.025 106.22C239.245 106.84 238.415 107.55 237.535 108.35C236.675 109.13 235.885 109.94 235.165 110.78C234.465 111.6 233.955 112.39 233.635 113.15C234.295 112.93 235.095 112.74 236.035 112.58C236.995 112.4 237.965 112.31 238.945 112.31C240.485 112.31 241.625 112.66 242.365 113.36C243.125 114.04 243.505 114.94 243.505 116.06C243.505 116.78 243.275 117.53 242.815 118.31C242.375 119.07 241.795 119.78 241.075 120.44C240.355 121.1 239.585 121.63 238.765 122.03C237.945 122.45 237.165 122.66 236.425 122.66ZM297.288 108.08C297.288 108.32 296.938 108.59 296.238 108.89C295.558 109.19 294.638 109.5 293.478 109.82C292.318 110.12 291.018 110.42 289.578 110.72C288.158 111.02 286.698 111.29 285.198 111.53C284.658 113.39 284.128 115.27 283.608 117.17C283.088 119.05 282.638 120.82 282.258 122.48C282.178 122.8 282.018 123.03 281.778 123.17C281.558 123.33 281.308 123.41 281.028 123.41C280.708 123.41 280.438 123.32 280.218 123.14C279.998 122.98 279.888 122.76 279.888 122.48C279.888 121.98 279.988 121.26 280.188 120.32C280.388 119.38 280.648 118.29 280.968 117.05C281.308 115.81 281.658 114.49 282.018 113.09C281.138 114.45 280.168 115.73 279.108 116.93C278.048 118.13 276.938 119.19 275.778 120.11C274.618 121.03 273.428 121.75 272.208 122.27C271.008 122.79 269.798 123.05 268.578 123.05C266.678 123.05 265.288 122.55 264.408 121.55C263.528 120.55 263.088 119.05 263.088 117.05C263.088 115.93 263.218 114.81 263.478 113.69C263.758 112.55 264.128 111.47 264.588 110.45C265.068 109.43 265.598 108.53 266.178 107.75C266.758 106.95 267.358 106.32 267.978 105.86C268.618 105.4 269.228 105.17 269.808 105.17C270.928 105.17 271.758 105.48 272.298 106.1C272.838 106.72 273.108 107.49 273.108 108.41C273.108 109.37 272.888 110.28 272.448 111.14C272.008 112 271.418 112.78 270.678 113.48C269.938 114.18 269.128 114.78 268.248 115.28C267.368 115.76 266.498 116.09 265.638 116.27C265.618 116.45 265.608 116.63 265.608 116.81C265.608 118.23 265.868 119.21 266.388 119.75C266.928 120.27 267.778 120.53 268.938 120.53C270.058 120.53 271.238 120.19 272.478 119.51C273.738 118.83 274.998 117.87 276.258 116.63C277.538 115.39 278.758 113.94 279.918 112.28C279.058 112.38 278.258 112.46 277.518 112.52C276.798 112.56 276.168 112.58 275.628 112.58C275.068 112.58 274.678 112.5 274.458 112.34C274.258 112.18 274.158 111.91 274.158 111.53C274.158 111.37 274.258 111.17 274.458 110.93C274.678 110.69 274.918 110.56 275.178 110.54C276.338 110.44 277.438 110.33 278.478 110.21C279.538 110.09 280.548 109.96 281.508 109.82C282.028 108.94 282.528 108.02 283.008 107.06C283.488 106.08 283.938 105.08 284.358 104.06C284.738 102.72 285.118 101.52 285.498 100.46C285.898 99.4 286.308 98.57 286.728 97.97C287.168 97.35 287.628 97.04 288.108 97.04C288.328 97.04 288.518 97.14 288.678 97.34C288.858 97.54 288.948 97.82 288.948 98.18C288.948 98.44 288.808 99.1 288.528 100.16C288.248 101.2 287.868 102.51 287.388 104.09C286.928 105.65 286.428 107.35 285.888 109.19C289.048 108.69 291.488 108.24 293.208 107.84C294.928 107.44 296.018 107.24 296.478 107.24C296.738 107.24 296.938 107.33 297.078 107.51C297.218 107.67 297.288 107.86 297.288 108.08ZM265.968 114.02C266.748 113.6 267.498 113.06 268.218 112.4C268.938 111.74 269.528 111.05 269.988 110.33C270.468 109.61 270.708 108.94 270.708 108.32C270.708 107.76 270.448 107.48 269.928 107.48C269.508 107.48 269.038 107.8 268.518 108.44C268.018 109.06 267.538 109.87 267.078 110.87C266.618 111.87 266.248 112.92 265.968 114.02ZM32.6275 163.42C31.6475 163.42 30.7975 163.2 30.0775 162.76C29.3775 162.3 28.8375 161.71 28.4575 160.99C28.0775 160.27 27.8875 159.53 27.8875 158.77C27.8875 157.17 28.1675 155.71 28.7275 154.39C29.2875 153.05 29.9875 151.87 30.8275 150.85C31.6875 149.81 32.5675 148.93 33.4675 148.21C34.3875 147.49 35.2175 146.95 35.9575 146.59C36.7175 146.21 37.2575 146.02 37.5775 146.02C38.2175 146.02 38.5375 146.34 38.5375 146.98C38.5375 147.28 38.3375 147.63 37.9375 148.03C37.5375 148.41 37.0275 148.86 36.4075 149.38C35.7875 149.9 35.1275 150.49 34.4275 151.15C33.7275 151.79 33.0675 152.52 32.4475 153.34C31.8275 154.14 31.3175 155.04 30.9175 156.04C30.5175 157.02 30.3175 158.1 30.3175 159.28C30.3175 160.48 30.8075 161.08 31.7875 161.08C32.6875 161.08 33.6075 160.91 34.5475 160.57C35.5075 160.23 36.4475 159.79 37.3675 159.25C38.3075 158.69 39.2075 158.11 40.0675 157.51C40.9275 156.91 41.7075 156.34 42.4075 155.8C43.1075 155.24 43.6975 154.79 44.1775 154.45C44.6575 154.11 44.9975 153.94 45.1975 153.94C45.5975 153.94 45.7975 154.16 45.7975 154.6C45.7975 154.94 45.5675 155.39 45.1075 155.95C44.6475 156.51 44.0275 157.12 43.2475 157.78C42.4675 158.44 41.5975 159.11 40.6375 159.79C39.6775 160.45 38.7075 161.06 37.7275 161.62C36.7475 162.16 35.8075 162.6 34.9075 162.94C34.0275 163.26 33.2675 163.42 32.6275 163.42ZM45.2076 163.57C44.8876 163.57 44.6176 163.44 44.3976 163.18C44.1776 162.92 44.0676 162.56 44.0676 162.1C44.0676 161.76 44.1376 161.2 44.2776 160.42C44.4376 159.62 44.6076 158.69 44.7876 157.63C44.9876 156.57 45.1576 155.47 45.2976 154.33C45.4376 153.17 45.5076 152.06 45.5076 151C45.5076 150.48 45.6376 150.1 45.8976 149.86C46.1776 149.6 46.4876 149.47 46.8276 149.47C47.1476 149.47 47.3876 149.67 47.5476 150.07C47.7076 150.47 47.7376 151.27 47.6376 152.47C48.5576 150.43 49.5676 148.79 50.6676 147.55C51.7876 146.29 52.8976 145.39 53.9976 144.85C55.0976 144.29 56.0876 144.01 56.9676 144.01C57.5476 144.01 57.9676 144.13 58.2276 144.37C58.5076 144.59 58.6476 144.84 58.6476 145.12C58.6476 145.5 58.4876 145.8 58.1676 146.02C57.8676 146.22 57.3376 146.46 56.5776 146.74C55.6976 147.08 54.8876 147.48 54.1476 147.94C53.4276 148.38 52.7376 148.96 52.0776 149.68C51.4376 150.4 50.8076 151.32 50.1876 152.44C49.5676 153.54 48.9476 154.9 48.3276 156.52C47.7076 158.14 47.0476 160.09 46.3476 162.37C46.2276 162.81 46.0676 163.12 45.8676 163.3C45.6876 163.48 45.4676 163.57 45.2076 163.57ZM69.2059 150.07C69.2059 150.71 69.0059 151.34 68.6059 151.96C68.2059 152.56 67.6759 153.14 67.0159 153.7C66.3559 154.24 65.6259 154.75 64.8259 155.23C64.0259 155.71 63.2259 156.13 62.4259 156.49C61.6259 156.85 60.8959 157.14 60.2359 157.36C60.0759 158.14 59.9959 158.83 59.9959 159.43C59.9959 159.81 60.0859 160.08 60.2659 160.24C60.4459 160.4 60.7259 160.48 61.1059 160.48C61.9459 160.48 62.8359 160.33 63.7759 160.03C64.7159 159.73 65.6759 159.34 66.6559 158.86C67.6359 158.38 68.5759 157.87 69.4759 157.33C70.3759 156.79 71.1959 156.28 71.9359 155.8C72.6959 155.32 73.3259 154.93 73.8259 154.63C74.3259 154.33 74.6559 154.18 74.8159 154.18C75.0559 154.18 75.2359 154.26 75.3559 154.42C75.4959 154.56 75.5659 154.73 75.5659 154.93C75.5659 155.09 75.3159 155.4 74.8159 155.86C74.3359 156.32 73.6859 156.86 72.8659 157.48C72.0459 158.08 71.1259 158.7 70.1059 159.34C69.0859 159.98 68.0259 160.58 66.9259 161.14C65.8459 161.7 64.7959 162.15 63.7759 162.49C62.7759 162.83 61.8759 163 61.0759 163C60.0359 163 59.2259 162.61 58.6459 161.83C58.0659 161.05 57.7759 159.84 57.7759 158.2C57.7759 157.1 57.9159 155.99 58.1959 154.87C58.4959 153.75 58.8959 152.68 59.3959 151.66C59.9159 150.62 60.4859 149.7 61.1059 148.9C61.7459 148.08 62.4159 147.44 63.1159 146.98C63.8159 146.5 64.4959 146.26 65.1559 146.26C66.4159 146.26 67.4059 146.61 68.1259 147.31C68.8459 148.01 69.2059 148.93 69.2059 150.07ZM60.8659 155.05C61.4859 154.67 62.1259 154.27 62.7859 153.85C63.4459 153.43 64.0559 153 64.6159 152.56C65.1759 152.12 65.6259 151.66 65.9659 151.18C66.3259 150.68 66.5059 150.17 66.5059 149.65C66.5059 148.91 66.1059 148.54 65.3059 148.54C64.8059 148.54 64.2759 148.86 63.7159 149.5C63.1759 150.12 62.6559 150.93 62.1559 151.93C61.6559 152.93 61.2259 153.97 60.8659 155.05ZM64.2559 144.28C63.7759 144.28 63.5359 144 63.5359 143.44C63.5359 143.18 63.6359 142.8 63.8359 142.3C64.0359 141.8 64.2959 141.23 64.6159 140.59C64.9359 139.95 65.2759 139.29 65.6359 138.61C66.0159 137.93 66.3859 137.29 66.7459 136.69C66.8659 136.47 67.0159 136.29 67.1959 136.15C67.3959 136.01 67.6159 135.94 67.8559 135.94C68.0759 135.94 68.3259 136.08 68.6059 136.36C68.8859 136.62 69.0259 137 69.0259 137.5C69.0259 137.7 68.8959 138.04 68.6359 138.52C68.3759 139 68.0459 139.55 67.6459 140.17C67.2459 140.79 66.8359 141.4 66.4159 142C65.9959 142.6 65.6159 143.13 65.2759 143.59C65.1159 143.81 64.9559 143.98 64.7959 144.1C64.6559 144.22 64.4759 144.28 64.2559 144.28ZM85.3778 150.07C85.3778 150.71 85.1778 151.34 84.7778 151.96C84.3778 152.56 83.8478 153.14 83.1878 153.7C82.5278 154.24 81.7978 154.75 80.9978 155.23C80.1978 155.71 79.3978 156.13 78.5978 156.49C77.7978 156.85 77.0678 157.14 76.4078 157.36C76.2478 158.14 76.1678 158.83 76.1678 159.43C76.1678 159.81 76.2578 160.08 76.4378 160.24C76.6178 160.4 76.8978 160.48 77.2778 160.48C78.1178 160.48 79.0078 160.33 79.9478 160.03C80.8878 159.73 81.8478 159.34 82.8278 158.86C83.8078 158.38 84.7478 157.87 85.6478 157.33C86.5478 156.79 87.3678 156.28 88.1078 155.8C88.8678 155.32 89.4978 154.93 89.9978 154.63C90.4978 154.33 90.8278 154.18 90.9878 154.18C91.2278 154.18 91.4078 154.26 91.5278 154.42C91.6678 154.56 91.7378 154.73 91.7378 154.93C91.7378 155.09 91.4878 155.4 90.9878 155.86C90.5078 156.32 89.8578 156.86 89.0378 157.48C88.2178 158.08 87.2978 158.7 86.2778 159.34C85.2578 159.98 84.1978 160.58 83.0978 161.14C82.0178 161.7 80.9678 162.15 79.9478 162.49C78.9478 162.83 78.0478 163 77.2478 163C76.2078 163 75.3978 162.61 74.8178 161.83C74.2378 161.05 73.9478 159.84 73.9478 158.2C73.9478 157.1 74.0878 155.99 74.3678 154.87C74.6678 153.75 75.0678 152.68 75.5678 151.66C76.0878 150.62 76.6578 149.7 77.2778 148.9C77.9178 148.08 78.5878 147.44 79.2878 146.98C79.9878 146.5 80.6678 146.26 81.3278 146.26C82.5878 146.26 83.5778 146.61 84.2978 147.31C85.0178 148.01 85.3778 148.93 85.3778 150.07ZM77.0378 155.05C77.6578 154.67 78.2978 154.27 78.9578 153.85C79.6178 153.43 80.2278 153 80.7878 152.56C81.3478 152.12 81.7978 151.66 82.1378 151.18C82.4978 150.68 82.6778 150.17 82.6778 149.65C82.6778 148.91 82.2778 148.54 81.4778 148.54C80.9778 148.54 80.4478 148.86 79.8878 149.5C79.3478 150.12 78.8278 150.93 78.3278 151.93C77.8278 152.93 77.3978 153.97 77.0378 155.05ZM101.449 163.33C101.269 163.33 100.909 163.32 100.369 163.3C99.8491 163.28 99.2291 163.25 98.5091 163.21C97.7891 163.17 97.0391 163.13 96.2591 163.09C95.4991 163.05 94.7791 163.02 94.0991 163C93.4391 162.98 92.8891 162.97 92.4491 162.97C91.9091 162.97 91.4591 162.79 91.0991 162.43C90.7591 162.07 90.5891 161.57 90.5891 160.93C90.5891 160.51 90.7791 159.97 91.1591 159.31C91.5391 158.65 92.0491 157.92 92.6891 157.12C93.3291 156.3 94.0391 155.46 94.8191 154.6C95.6191 153.74 96.4291 152.9 97.2491 152.08C98.0691 151.26 98.8591 150.5 99.6191 149.8C100.379 149.1 101.039 148.53 101.599 148.09C100.279 148.25 98.9891 148.46 97.7291 148.72C96.4691 148.96 95.3691 149.18 94.4291 149.38C93.5091 149.58 92.8891 149.68 92.5691 149.68C92.1691 149.68 91.8491 149.57 91.6091 149.35C91.3691 149.11 91.2491 148.79 91.2491 148.39C91.2491 148.17 91.4891 147.95 91.9691 147.73C92.4691 147.51 93.1291 147.3 93.9491 147.1C94.7691 146.9 95.6691 146.73 96.6491 146.59C97.6491 146.43 98.6591 146.31 99.6791 146.23C100.699 146.15 101.649 146.11 102.529 146.11C103.129 146.11 103.609 146.29 103.969 146.65C104.349 147.01 104.539 147.39 104.539 147.79C104.539 147.95 104.309 148.31 103.849 148.87C103.389 149.43 102.789 150.11 102.049 150.91C101.309 151.71 100.499 152.57 99.6191 153.49C98.7391 154.41 97.8791 155.33 97.0391 156.25C96.1991 157.15 95.4491 157.99 94.7891 158.77C94.1291 159.53 93.6491 160.16 93.3491 160.66C93.8891 160.64 94.5291 160.62 95.2691 160.6C96.0091 160.58 96.7791 160.56 97.5791 160.54C98.3791 160.5 99.1391 160.47 99.8591 160.45C100.579 160.41 101.189 160.38 101.689 160.36C102.209 160.34 102.549 160.33 102.709 160.33C103.509 160.33 103.909 160.66 103.909 161.32C103.909 161.82 103.679 162.28 103.219 162.7C102.759 163.12 102.169 163.33 101.449 163.33ZM127.356 162.25C127.056 162.25 126.756 162.03 126.456 161.59C126.176 161.15 125.966 160.53 125.826 159.73C125.686 158.89 125.556 157.93 125.436 156.85C125.316 155.77 125.216 154.71 125.136 153.67C125.056 152.63 124.996 151.71 124.956 150.91C124.916 150.11 124.896 149.57 124.896 149.29C124.896 148.25 125.056 147.48 125.376 146.98C125.716 146.46 126.146 146.2 126.666 146.2C127.026 146.2 127.286 146.3 127.446 146.5C127.606 146.68 127.686 147.1 127.686 147.76C127.686 148.2 127.696 148.77 127.716 149.47C127.736 150.17 127.766 150.93 127.806 151.75C127.846 152.73 127.886 153.77 127.926 154.87C127.966 155.95 127.996 157.02 128.016 158.08C128.496 157.28 129.046 156.39 129.666 155.41C130.306 154.43 130.956 153.43 131.616 152.41C132.276 151.37 132.916 150.38 133.536 149.44C134.156 148.5 134.706 147.68 135.186 146.98C135.666 146.28 136.036 145.77 136.296 145.45C136.636 145.05 136.946 144.77 137.226 144.61C137.526 144.45 137.786 144.37 138.006 144.37C138.306 144.37 138.546 144.48 138.726 144.7C138.926 144.92 139.026 145.23 139.026 145.63C139.026 145.87 138.976 146.14 138.876 146.44C138.796 146.72 138.646 147.01 138.426 147.31C137.886 148.13 137.236 149.09 136.476 150.19C135.716 151.29 134.926 152.43 134.106 153.61C133.286 154.79 132.486 155.94 131.706 157.06C130.926 158.16 130.246 159.13 129.666 159.97C128.646 161.49 127.876 162.25 127.356 162.25ZM144.056 163.3C142.876 163.3 141.946 162.85 141.266 161.95C140.586 161.05 140.246 159.88 140.246 158.44C140.246 157.92 140.316 157.37 140.456 156.79C140.616 156.19 140.816 155.65 141.056 155.17C140.916 155.03 140.806 154.84 140.726 154.6C140.646 154.34 140.606 154.02 140.606 153.64C140.606 152.46 140.806 151.38 141.206 150.4C141.606 149.42 142.136 148.57 142.796 147.85C143.456 147.11 144.186 146.54 144.986 146.14C145.806 145.74 146.636 145.54 147.476 145.54C148.856 145.54 149.976 146.04 150.836 147.04C151.696 148.02 152.126 149.52 152.126 151.54C152.126 152.6 151.966 153.68 151.646 154.78C151.346 155.88 150.926 156.94 150.386 157.96C149.866 158.98 149.256 159.89 148.556 160.69C147.876 161.49 147.146 162.13 146.366 162.61C145.606 163.07 144.836 163.3 144.056 163.3ZM143.036 154.15C143.156 154.31 143.216 154.52 143.216 154.78C143.216 155.08 143.156 155.38 143.036 155.68C142.936 155.98 142.826 156.39 142.706 156.91C142.586 157.43 142.526 158.17 142.526 159.13C142.526 160.09 142.906 160.57 143.666 160.57C144.506 160.57 145.286 160.24 146.006 159.58C146.726 158.9 147.366 158.03 147.926 156.97C148.486 155.91 148.916 154.78 149.216 153.58C149.536 152.36 149.696 151.21 149.696 150.13C149.696 149.43 149.566 148.94 149.306 148.66C149.046 148.36 148.576 148.21 147.896 148.21C147.196 148.21 146.466 148.45 145.706 148.93C144.966 149.39 144.346 150.02 143.846 150.82C143.346 151.62 143.096 152.52 143.096 153.52C143.096 153.74 143.076 153.95 143.036 154.15ZM154.274 153.4C153.734 153.36 153.484 153.01 153.524 152.35C153.544 152.19 153.654 152 153.854 151.78C154.054 151.54 154.284 151.41 154.544 151.39C155.164 151.33 155.924 151.24 156.824 151.12C157.744 150.98 158.754 150.82 159.854 150.64C160.054 149.66 160.294 148.63 160.574 147.55C160.854 146.47 161.164 145.42 161.504 144.4C161.844 143.36 162.204 142.42 162.584 141.58C162.964 140.74 163.364 140.08 163.784 139.6C164.004 139.38 164.204 139.23 164.384 139.15C164.564 139.05 164.724 139 164.864 139C165.144 139 165.364 139.12 165.524 139.36C165.704 139.6 165.794 139.87 165.794 140.17C165.794 140.33 165.764 140.49 165.704 140.65C165.304 141.77 164.874 143.15 164.414 144.79C163.954 146.43 163.464 148.22 162.944 150.16C164.784 149.86 166.624 149.54 168.464 149.2C170.304 148.86 171.884 148.55 173.204 148.27C173.584 148.11 173.874 148.14 174.074 148.36C174.294 148.58 174.404 148.8 174.404 149.02C174.404 149.3 174.324 149.51 174.164 149.65C174.024 149.79 173.874 149.91 173.714 150.01L173.684 150.04C173.284 150.2 172.684 150.39 171.884 150.61C171.084 150.81 170.164 151.03 169.124 151.27C168.084 151.49 166.974 151.71 165.794 151.93C164.634 152.15 163.484 152.35 162.344 152.53C161.884 154.29 161.414 156.1 160.934 157.96C160.474 159.8 160.014 161.61 159.554 163.39C159.354 164.11 159.124 164.56 158.864 164.74C158.624 164.94 158.364 165.04 158.084 165.04C157.764 165.04 157.484 164.92 157.244 164.68C157.024 164.44 156.994 163.95 157.154 163.21L159.344 152.98C158.144 153.16 157.084 153.29 156.164 153.37C155.264 153.45 154.634 153.46 154.274 153.4ZM172.239 162.57C171.919 162.57 171.649 162.44 171.429 162.18C171.209 161.92 171.099 161.56 171.099 161.1C171.099 160.76 171.169 160.2 171.309 159.42C171.469 158.62 171.639 157.69 171.819 156.63C172.019 155.57 172.189 154.47 172.329 153.33C172.469 152.17 172.539 151.06 172.539 150C172.539 149.48 172.669 149.1 172.929 148.86C173.209 148.6 173.519 148.47 173.859 148.47C174.179 148.47 174.419 148.67 174.579 149.07C174.739 149.47 174.769 150.27 174.669 151.47C175.589 149.43 176.599 147.79 177.699 146.55C178.819 145.29 179.929 144.39 181.029 143.85C182.129 143.29 183.119 143.01 183.999 143.01C184.579 143.01 184.999 143.13 185.259 143.37C185.539 143.59 185.679 143.84 185.679 144.12C185.679 144.5 185.519 144.8 185.199 145.02C184.899 145.22 184.369 145.46 183.609 145.74C182.729 146.08 181.919 146.48 181.179 146.94C180.459 147.38 179.769 147.96 179.109 148.68C178.469 149.4 177.839 150.32 177.219 151.44C176.599 152.54 175.979 153.9 175.359 155.52C174.739 157.14 174.079 159.09 173.379 161.37C173.259 161.81 173.099 162.12 172.899 162.3C172.719 162.48 172.499 162.57 172.239 162.57ZM196.237 150.07C196.237 150.71 196.037 151.34 195.637 151.96C195.237 152.56 194.707 153.14 194.047 153.7C193.387 154.24 192.657 154.75 191.857 155.23C191.057 155.71 190.257 156.13 189.457 156.49C188.657 156.85 187.927 157.14 187.267 157.36C187.107 158.14 187.027 158.83 187.027 159.43C187.027 159.81 187.117 160.08 187.297 160.24C187.477 160.4 187.757 160.48 188.137 160.48C188.977 160.48 189.867 160.33 190.807 160.03C191.747 159.73 192.707 159.34 193.687 158.86C194.667 158.38 195.607 157.87 196.507 157.33C197.407 156.79 198.227 156.28 198.967 155.8C199.727 155.32 200.357 154.93 200.857 154.63C201.357 154.33 201.687 154.18 201.847 154.18C202.087 154.18 202.267 154.26 202.387 154.42C202.527 154.56 202.597 154.73 202.597 154.93C202.597 155.09 202.347 155.4 201.847 155.86C201.367 156.32 200.717 156.86 199.897 157.48C199.077 158.08 198.157 158.7 197.137 159.34C196.117 159.98 195.057 160.58 193.957 161.14C192.877 161.7 191.827 162.15 190.807 162.49C189.807 162.83 188.907 163 188.107 163C187.067 163 186.257 162.61 185.677 161.83C185.097 161.05 184.807 159.84 184.807 158.2C184.807 157.1 184.947 155.99 185.227 154.87C185.527 153.75 185.927 152.68 186.427 151.66C186.947 150.62 187.517 149.7 188.137 148.9C188.777 148.08 189.447 147.44 190.147 146.98C190.847 146.5 191.527 146.26 192.187 146.26C193.447 146.26 194.437 146.61 195.157 147.31C195.877 148.01 196.237 148.93 196.237 150.07ZM187.897 155.05C188.517 154.67 189.157 154.27 189.817 153.85C190.477 153.43 191.087 153 191.647 152.56C192.207 152.12 192.657 151.66 192.997 151.18C193.357 150.68 193.537 150.17 193.537 149.65C193.537 148.91 193.137 148.54 192.337 148.54C191.837 148.54 191.307 148.86 190.747 149.5C190.207 150.12 189.687 150.93 189.187 151.93C188.687 152.93 188.257 153.97 187.897 155.05ZM228.203 158.56C228.423 158.56 228.633 158.65 228.833 158.83C229.033 159.01 229.133 159.3 229.133 159.7C229.133 160.02 228.893 160.4 228.413 160.84C227.933 161.26 227.313 161.67 226.553 162.07C225.813 162.47 225.013 162.8 224.153 163.06C223.293 163.34 222.483 163.48 221.723 163.48C220.643 163.48 219.623 163.2 218.663 162.64C217.723 162.08 216.953 161.27 216.353 160.21C215.753 159.13 215.453 157.82 215.453 156.28C215.453 154.92 215.703 153.56 216.203 152.2C216.703 150.84 217.363 149.53 218.183 148.27C219.023 147.01 219.943 145.84 220.943 144.76C221.963 143.68 222.983 142.74 224.003 141.94C225.023 141.14 225.973 140.52 226.853 140.08C227.753 139.62 228.493 139.39 229.073 139.39C229.473 139.39 229.793 139.54 230.033 139.84C230.293 140.12 230.423 140.43 230.423 140.77C230.423 140.97 230.363 141.17 230.243 141.37C230.143 141.57 229.963 141.73 229.703 141.85C228.403 142.49 227.083 143.31 225.743 144.31C224.403 145.31 223.163 146.45 222.023 147.73C220.883 148.99 219.963 150.36 219.263 151.84C218.563 153.3 218.213 154.84 218.213 156.46C218.213 157.86 218.543 158.93 219.203 159.67C219.863 160.39 220.763 160.75 221.903 160.75C222.503 160.75 223.123 160.64 223.763 160.42C224.423 160.2 225.043 159.95 225.623 159.67C226.223 159.37 226.743 159.11 227.183 158.89C227.643 158.67 227.983 158.56 228.203 158.56ZM244.93 165.43C244.17 165.43 243.46 164.67 242.8 163.15C242.16 161.65 241.64 159.44 241.24 156.52C240.86 153.58 240.67 150 240.67 145.78C240.67 144 240.77 142.64 240.97 141.7C241.19 140.76 241.49 140.12 241.87 139.78C242.27 139.44 242.74 139.27 243.28 139.27C243.86 139.27 244.24 139.42 244.42 139.72C244.62 140.02 244.72 140.4 244.72 140.86C244.72 141.18 244.66 141.53 244.54 141.91C244.42 142.27 244.16 142.72 243.76 143.26C243.72 143.98 243.68 144.65 243.64 145.27C243.62 145.89 243.61 146.52 243.61 147.16C243.61 148.64 243.65 150.14 243.73 151.66C243.81 153.18 243.91 154.64 244.03 156.04C244.15 157.44 244.29 158.7 244.45 159.82C244.63 160.94 244.81 161.84 244.99 162.52C245.35 161.56 245.79 160.4 246.31 159.04C246.83 157.68 247.39 156.23 247.99 154.69C248.59 153.13 249.19 151.58 249.79 150.04C250.41 148.5 250.99 147.06 251.53 145.72C252.07 144.36 252.53 143.21 252.91 142.27C253.31 141.31 253.59 140.66 253.75 140.32C253.95 139.88 254.19 139.44 254.47 139C254.77 138.54 255.09 138.16 255.43 137.86C255.77 137.54 256.12 137.38 256.48 137.38C257.16 137.38 257.5 137.86 257.5 138.82C257.5 138.94 257.34 139.42 257.02 140.26C256.72 141.08 256.3 142.16 255.76 143.5C255.24 144.82 254.65 146.28 253.99 147.88C253.33 149.46 252.64 151.08 251.92 152.74C251.22 154.36 250.52 155.93 249.82 157.45C249.12 158.95 248.46 160.3 247.84 161.5C247.22 162.7 246.66 163.65 246.16 164.35C245.66 165.07 245.25 165.43 244.93 165.43ZM265.272 155.59C265.092 155.59 264.932 155.5 264.792 155.32C264.672 155.12 264.612 154.86 264.612 154.54C264.612 154.1 264.692 153.41 264.852 152.47C265.032 151.51 265.262 150.4 265.542 149.14C265.842 147.86 266.182 146.53 266.562 145.15C266.962 143.77 267.382 142.42 267.822 141.1C268.262 139.76 268.702 138.57 269.142 137.53C269.442 136.83 269.812 136.48 270.252 136.48C270.712 136.48 271.132 136.7 271.512 137.14C271.892 137.58 272.082 138.12 272.082 138.76C272.082 139 271.962 139.45 271.722 140.11C271.502 140.77 271.202 141.57 270.822 142.51C270.462 143.45 270.062 144.46 269.622 145.54C269.182 146.62 268.732 147.72 268.272 148.84C267.832 149.94 267.422 150.98 267.042 151.96C266.662 152.94 266.362 153.79 266.142 154.51C266.002 154.95 265.872 155.24 265.752 155.38C265.632 155.52 265.472 155.59 265.272 155.59ZM263.502 164.53C263.202 164.53 262.892 164.36 262.572 164.02C262.252 163.68 262.092 162.99 262.092 161.95C262.092 161.37 262.282 160.94 262.662 160.66C263.042 160.36 263.532 160.21 264.132 160.21C265.152 160.21 265.662 160.74 265.662 161.8C265.662 162.3 265.542 162.75 265.302 163.15C265.062 163.57 264.772 163.9 264.432 164.14C264.112 164.4 263.802 164.53 263.502 164.53Z" fill="#F2E2C2"/>
<path d="M253.5 74.5C315.1 27.3 286.167 7.83334 264 4.00001C243.333 -1.99999 212.3 -1.39999 253.5 49C294.7 99.4 318.667 40 325.5 4.00001" stroke="#F2E2C2" stroke-width="2"/>
<path d="M326.857 2.4855C326.573 2.01192 325.959 1.85836 325.486 2.14251L317.768 6.77297C317.294 7.05712 317.141 7.67138 317.425 8.14496C317.709 8.61854 318.323 8.7721 318.797 8.48795L325.657 4.37199L329.773 11.2319C330.057 11.7055 330.671 11.8591 331.145 11.5749C331.619 11.2908 331.772 10.6765 331.488 10.2029L326.857 2.4855ZM323.97 15.2425L326.97 3.24254L325.03 2.75746L322.03 14.7575L323.97 15.2425Z" fill="#F2E2C2"/>
</svg>
