<svg width="41" height="41" viewBox="0 0 41 41" fill="none" xmlns="http://www.w3.org/2000/svg">
<path d="M32.6719 38.4375H14.7344C13.2052 38.4375 11.7387 37.8301 10.6575 36.7488C9.5762 35.6675 8.96875 34.201 8.96875 32.6719V14.7344C8.96875 13.2052 9.5762 11.7387 10.6575 10.6575C11.7387 9.5762 13.2052 8.96875 14.7344 8.96875H32.6719C34.201 8.96875 35.6675 9.5762 36.7488 10.6575C37.8301 11.7387 38.4375 13.2052 38.4375 14.7344V32.6719C38.4375 34.201 37.8301 35.6675 36.7488 36.7488C35.6675 37.8301 34.201 38.4375 32.6719 38.4375Z" fill="black" fill-opacity="0.75"/>
<path d="M12.8125 6.40625H31.7013C31.3027 5.28295 30.5663 4.3105 29.593 3.62232C28.6198 2.93414 27.4576 2.56394 26.2656 2.5625H8.32812C6.79898 2.5625 5.33248 3.16995 4.25121 4.25121C3.16995 5.33248 2.5625 6.79898 2.5625 8.32812V26.2656C2.56394 27.4576 2.93414 28.6198 3.62232 29.593C4.3105 30.5663 5.28295 31.3027 6.40625 31.7013V12.8125C6.40625 11.1135 7.08119 9.484 8.2826 8.2826C9.484 7.08119 11.1135 6.40625 12.8125 6.40625Z" fill="black" fill-opacity="0.75"/>
</svg>
