<svg width="17" height="31" viewBox="0 0 17 31" fill="none" xmlns="http://www.w3.org/2000/svg">
<path d="M13.9943 13.625C12.8897 13.625 11.9943 14.5204 11.9943 15.625C11.9943 16.7296 12.8897 17.625 13.9943 17.625V13.625ZM16.2999 17.0392C17.081 16.2582 17.081 14.9918 16.2999 14.2108L3.57198 1.48286C2.79093 0.701816 1.5246 0.701816 0.743556 1.48286C-0.0374928 2.26391 -0.0374928 3.53024 0.743556 4.31129L12.0573 15.625L0.743556 26.9387C-0.0374928 27.7198 -0.0374928 28.9861 0.743556 29.7671C1.5246 30.5482 2.79093 30.5482 3.57198 29.7671L16.2999 17.0392ZM13.9943 17.625H14.8857V13.625H13.9943V17.625Z" fill="black"/>
</svg>
