<svg width="246" height="54" viewBox="0 0 246 54" fill="none" xmlns="http://www.w3.org/2000/svg">
<path d="M22.97 0.459996C26.05 0.459996 28.57 0.926663 30.53 1.86C32.5367 2.74666 34.31 3.79667 35.85 5.01C36.7833 5.71 37.4833 5.80333 37.95 5.29C38.4633 4.73 38.8133 3.44667 39 1.44H40.61C40.5167 3.16667 40.4467 5.26667 40.4 7.74C40.3533 10.2133 40.33 13.48 40.33 17.54H38.72C38.3933 15.5333 38.09 13.9467 37.81 12.78C37.53 11.5667 37.18 10.54 36.76 9.7C36.3867 8.86 35.8733 8.02 35.22 7.18C33.7733 5.26666 31.9533 3.89 29.76 3.05C27.5667 2.16333 25.2567 1.72 22.83 1.72C20.5433 1.72 18.4667 2.30333 16.6 3.47C14.78 4.59 13.1933 6.22333 11.84 8.37C10.5333 10.5167 9.50667 13.1067 8.76 16.14C8.06 19.1733 7.71 22.58 7.71 26.36C7.71 30.28 8.10667 33.7567 8.9 36.79C9.69333 39.7767 10.79 42.2967 12.19 44.35C13.6367 46.4033 15.3167 47.9667 17.23 49.04C19.19 50.0667 21.29 50.58 23.53 50.58C25.63 50.58 27.8233 50.16 30.11 49.32C32.3967 48.48 34.1933 47.1267 35.5 45.26C36.5267 43.9067 37.2267 42.4367 37.6 40.85C38.02 39.2633 38.3933 37.0467 38.72 34.2H40.33C40.33 38.4467 40.3533 41.8767 40.4 44.49C40.4467 47.0567 40.5167 49.2267 40.61 51H39C38.8133 48.9933 38.4867 47.7333 38.02 47.22C37.6 46.7067 36.8767 46.7767 35.85 47.43C34.1233 48.6433 32.28 49.7167 30.32 50.65C28.4067 51.5367 25.9333 51.98 22.9 51.98C18.4667 51.98 14.57 50.9767 11.21 48.97C7.89667 46.9633 5.30667 44.07 3.44 40.29C1.62 36.51 0.71 31.96 0.71 26.64C0.71 21.4133 1.66667 16.84 3.58 12.92C5.49333 9 8.10667 5.94333 11.42 3.75C14.78 1.55666 18.63 0.459996 22.97 0.459996ZM89.7834 1.44V2.84C88.8967 3.02667 87.94 3.56333 86.9134 4.45C85.9334 5.33666 85.0467 6.83 84.2534 8.93L67.8034 51.35C67.71 51.35 67.6167 51.35 67.5234 51.35C67.43 51.35 67.3367 51.35 67.2434 51.35C67.15 51.35 67.0567 51.35 66.9634 51.35C66.87 51.35 66.7767 51.35 66.6834 51.35L49.6034 7.32C48.9034 5.54666 48.11 4.38 47.2234 3.82C46.3367 3.21333 45.52 2.88666 44.7734 2.84V1.44C45.7067 1.48667 46.85 1.53333 48.2034 1.58C49.6034 1.62666 50.9567 1.65 52.2634 1.65C54.0834 1.65 55.7867 1.62666 57.3734 1.58C58.96 1.53333 60.2434 1.48667 61.2234 1.44V2.84C59.6367 2.88666 58.4234 3.07333 57.5834 3.4C56.79 3.72666 56.3467 4.31 56.2534 5.15C56.2067 5.94333 56.4867 7.13333 57.0934 8.72L70.1134 43.23L68.9934 44.42L81.1734 12.78C82.1534 10.26 82.62 8.3 82.5734 6.9C82.5267 5.45333 81.99 4.42667 80.9634 3.82C79.9367 3.21333 78.4434 2.88666 76.4834 2.84V1.44C77.8367 1.48667 79.2134 1.53333 80.6134 1.58C82.0134 1.62666 83.32 1.65 84.5334 1.65C85.7467 1.65 86.75 1.62666 87.5434 1.58C88.3367 1.53333 89.0834 1.48667 89.7834 1.44ZM102.415 51.56C101.109 51.56 99.9754 51.2667 99.0154 50.68C98.0821 50.0667 97.3621 49.28 96.8554 48.32C96.3487 47.36 96.0954 46.3733 96.0954 45.36C96.0954 43.2267 96.4687 41.28 97.2154 39.52C97.9621 37.7333 98.8954 36.16 100.015 34.8C101.162 33.4133 102.335 32.24 103.535 31.28C104.762 30.32 105.869 29.6 106.855 29.12C107.869 28.6133 108.589 28.36 109.015 28.36C109.869 28.36 110.295 28.7867 110.295 29.64C110.295 30.04 110.029 30.5067 109.495 31.04C108.962 31.5467 108.282 32.1467 107.455 32.84C106.629 33.5333 105.749 34.32 104.815 35.2C103.882 36.0533 103.002 37.0267 102.175 38.12C101.349 39.1867 100.669 40.3867 100.135 41.72C99.6021 43.0267 99.3354 44.4667 99.3354 46.04C99.3354 47.64 99.9887 48.44 101.295 48.44C102.495 48.44 103.722 48.2133 104.975 47.76C106.255 47.3067 107.509 46.72 108.735 46C109.989 45.2533 111.189 44.48 112.335 43.68C113.482 42.88 114.522 42.12 115.455 41.4C116.389 40.6533 117.175 40.0533 117.815 39.6C118.455 39.1467 118.909 38.92 119.175 38.92C119.709 38.92 119.975 39.2133 119.975 39.8C119.975 40.2533 119.669 40.8533 119.055 41.6C118.442 42.3467 117.615 43.16 116.575 44.04C115.535 44.92 114.375 45.8133 113.095 46.72C111.815 47.6 110.522 48.4133 109.215 49.16C107.909 49.88 106.655 50.4667 105.455 50.92C104.282 51.3467 103.269 51.56 102.415 51.56ZM119.189 51.76C118.762 51.76 118.402 51.5867 118.109 51.24C117.815 50.8933 117.669 50.4133 117.669 49.8C117.669 49.3467 117.762 48.6 117.949 47.56C118.162 46.4933 118.389 45.2533 118.629 43.84C118.895 42.4267 119.122 40.96 119.309 39.44C119.495 37.8933 119.589 36.4133 119.589 35C119.589 34.3067 119.762 33.8 120.109 33.48C120.482 33.1333 120.895 32.96 121.349 32.96C121.775 32.96 122.095 33.2267 122.309 33.76C122.522 34.2933 122.562 35.36 122.429 36.96C123.655 34.24 125.002 32.0533 126.469 30.4C127.962 28.72 129.442 27.52 130.909 26.8C132.375 26.0533 133.695 25.68 134.869 25.68C135.642 25.68 136.202 25.84 136.549 26.16C136.922 26.4533 137.109 26.7867 137.109 27.16C137.109 27.6667 136.895 28.0667 136.469 28.36C136.069 28.6267 135.362 28.9467 134.349 29.32C133.175 29.7733 132.095 30.3067 131.109 30.92C130.149 31.5067 129.229 32.28 128.349 33.24C127.495 34.2 126.655 35.4267 125.829 36.92C125.002 38.3867 124.175 40.2 123.349 42.36C122.522 44.52 121.642 47.12 120.709 50.16C120.549 50.7467 120.335 51.16 120.069 51.4C119.829 51.64 119.535 51.76 119.189 51.76ZM151.187 33.76C151.187 34.6133 150.92 35.4533 150.387 36.28C149.853 37.08 149.147 37.8533 148.267 38.6C147.387 39.32 146.413 40 145.347 40.64C144.28 41.28 143.213 41.84 142.147 42.32C141.08 42.8 140.107 43.1867 139.227 43.48C139.013 44.52 138.907 45.44 138.907 46.24C138.907 46.7467 139.027 47.1067 139.267 47.32C139.507 47.5333 139.88 47.64 140.387 47.64C141.507 47.64 142.693 47.44 143.947 47.04C145.2 46.64 146.48 46.12 147.787 45.48C149.093 44.84 150.347 44.16 151.547 43.44C152.747 42.72 153.84 42.04 154.827 41.4C155.84 40.76 156.68 40.24 157.347 39.84C158.013 39.44 158.453 39.24 158.667 39.24C158.987 39.24 159.227 39.3467 159.387 39.56C159.573 39.7467 159.667 39.9733 159.667 40.24C159.667 40.4533 159.333 40.8667 158.667 41.48C158.027 42.0933 157.16 42.8133 156.067 43.64C154.973 44.44 153.747 45.2667 152.387 46.12C151.027 46.9733 149.613 47.7733 148.147 48.52C146.707 49.2667 145.307 49.8667 143.947 50.32C142.613 50.7733 141.413 51 140.347 51C138.96 51 137.88 50.48 137.107 49.44C136.333 48.4 135.947 46.7867 135.947 44.6C135.947 43.1333 136.133 41.6533 136.507 40.16C136.907 38.6667 137.44 37.24 138.107 35.88C138.8 34.4933 139.56 33.2667 140.387 32.2C141.24 31.1067 142.133 30.2533 143.067 29.64C144 29 144.907 28.68 145.787 28.68C147.467 28.68 148.787 29.1467 149.747 30.08C150.707 31.0133 151.187 32.24 151.187 33.76ZM140.067 40.4C140.893 39.8933 141.747 39.36 142.627 38.8C143.507 38.24 144.32 37.6667 145.067 37.08C145.813 36.4933 146.413 35.88 146.867 35.24C147.347 34.5733 147.587 33.8933 147.587 33.2C147.587 32.2133 147.053 31.72 145.987 31.72C145.32 31.72 144.613 32.1467 143.867 33C143.147 33.8267 142.453 34.9067 141.787 36.24C141.12 37.5733 140.547 38.96 140.067 40.4ZM159.485 52.04C158.471 52.04 157.631 51.5733 156.965 50.64C156.325 49.68 156.005 48.44 156.005 46.92C156.005 45.5067 156.351 44.1067 157.045 42.72C157.765 41.3333 158.711 40 159.885 38.72C161.058 37.44 162.338 36.2667 163.725 35.2C165.111 34.1067 166.498 33.16 167.885 32.36C169.298 31.56 170.591 30.9333 171.765 30.48C172.938 30.0267 173.871 29.8 174.565 29.8C174.938 29.8 175.245 29.88 175.485 30.04C175.725 30.1733 175.845 30.4267 175.845 30.8C175.845 31.04 175.751 31.2667 175.565 31.48C175.591 31.48 175.618 31.48 175.645 31.48C176.231 31.48 176.525 31.8267 176.525 32.52C176.525 32.76 176.431 33.2533 176.245 34C176.058 34.72 175.845 35.6267 175.605 36.72C175.365 37.8133 175.151 39.0267 174.965 40.36C174.778 41.6667 174.685 43 174.685 44.36C174.685 45.5067 175.125 46.08 176.005 46.08C176.991 46.08 177.991 45.8533 179.005 45.4C180.018 44.9467 181.005 44.4 181.965 43.76C182.925 43.0933 183.805 42.44 184.605 41.8C185.405 41.1333 186.085 40.5733 186.645 40.12C187.205 39.6667 187.605 39.44 187.845 39.44C188.058 39.44 188.245 39.5067 188.405 39.64C188.565 39.7733 188.645 39.9867 188.645 40.28C188.645 40.5467 188.378 41.0267 187.845 41.72C187.311 42.4133 186.605 43.2 185.725 44.08C184.845 44.96 183.858 45.8133 182.765 46.64C181.671 47.4667 180.551 48.1467 179.405 48.68C178.258 49.2133 177.165 49.48 176.125 49.48C175.325 49.48 174.591 49.24 173.925 48.76C173.285 48.2533 172.765 47.4 172.365 46.2C171.991 45 171.805 43.3467 171.805 41.24V40.24C170.498 42.4 169.125 44.3733 167.685 46.16C166.271 47.9467 164.858 49.3733 163.445 50.44C162.058 51.5067 160.738 52.04 159.485 52.04ZM173.805 32.68C173.671 32.7333 173.485 32.8133 173.245 32.92C172.018 33.48 170.738 34.1733 169.405 35C168.098 35.8267 166.818 36.7467 165.565 37.76C164.338 38.7733 163.231 39.8267 162.245 40.92C161.258 42.0133 160.471 43.12 159.885 44.24C159.298 45.36 159.005 46.4533 159.005 47.52C159.005 47.8667 159.071 48.1333 159.205 48.32C159.365 48.5067 159.631 48.6 160.005 48.6C160.538 48.6 161.231 48.2667 162.085 47.6C162.938 46.9067 163.871 46 164.885 44.88C165.925 43.76 166.965 42.52 168.005 41.16C169.045 39.8 170.031 38.4267 170.965 37.04C171.925 35.6533 172.751 34.3733 173.445 33.2C173.551 33.0133 173.671 32.84 173.805 32.68ZM183.088 38.2C182.368 38.1467 182.034 37.68 182.088 36.8C182.114 36.5867 182.261 36.3333 182.528 36.04C182.794 35.72 183.101 35.5467 183.448 35.52C184.274 35.44 185.288 35.32 186.488 35.16C187.714 34.9733 189.061 34.76 190.528 34.52C190.794 33.2133 191.114 31.84 191.488 30.4C191.861 28.96 192.274 27.56 192.728 26.2C193.181 24.8133 193.661 23.56 194.168 22.44C194.674 21.32 195.208 20.44 195.768 19.8C196.061 19.5067 196.328 19.3067 196.568 19.2C196.808 19.0667 197.021 19 197.208 19C197.581 19 197.874 19.16 198.088 19.48C198.328 19.8 198.448 20.16 198.448 20.56C198.448 20.7733 198.408 20.9867 198.328 21.2C197.794 22.6933 197.221 24.5333 196.608 26.72C195.994 28.9067 195.341 31.2933 194.648 33.88C197.101 33.48 199.554 33.0533 202.008 32.6C204.461 32.1467 206.568 31.7333 208.328 31.36C208.834 31.1467 209.221 31.1867 209.488 31.48C209.781 31.7733 209.928 32.0667 209.928 32.36C209.928 32.7333 209.821 33.0133 209.608 33.2C209.421 33.3867 209.221 33.5467 209.008 33.68L208.968 33.72C208.434 33.9333 207.634 34.1867 206.568 34.48C205.501 34.7467 204.274 35.04 202.888 35.36C201.501 35.6533 200.021 35.9467 198.448 36.24C196.901 36.5333 195.368 36.8 193.848 37.04C193.234 39.3867 192.608 41.8 191.968 44.28C191.354 46.7333 190.741 49.1467 190.128 51.52C189.861 52.48 189.554 53.08 189.208 53.32C188.888 53.5867 188.541 53.72 188.168 53.72C187.741 53.72 187.368 53.56 187.048 53.24C186.754 52.92 186.714 52.2667 186.928 51.28L189.848 37.64C188.248 37.88 186.834 38.0533 185.608 38.16C184.408 38.2667 183.568 38.28 183.088 38.2ZM210.909 51.4C209.336 51.4 208.096 50.8 207.189 49.6C206.282 48.4 205.829 46.84 205.829 44.92C205.829 44.2267 205.922 43.4933 206.109 42.72C206.322 41.92 206.589 41.2 206.909 40.56C206.722 40.3733 206.576 40.12 206.469 39.8C206.362 39.4533 206.309 39.0267 206.309 38.52C206.309 36.9467 206.576 35.5067 207.109 34.2C207.642 32.8933 208.349 31.76 209.229 30.8C210.109 29.8133 211.082 29.0533 212.149 28.52C213.242 27.9867 214.349 27.72 215.469 27.72C217.309 27.72 218.802 28.3867 219.949 29.72C221.096 31.0267 221.669 33.0267 221.669 35.72C221.669 37.1333 221.456 38.5733 221.029 40.04C220.629 41.5067 220.069 42.92 219.349 44.28C218.656 45.64 217.842 46.8533 216.909 47.92C216.002 48.9867 215.029 49.84 213.989 50.48C212.976 51.0933 211.949 51.4 210.909 51.4ZM209.549 39.2C209.709 39.4133 209.789 39.6933 209.789 40.04C209.789 40.44 209.709 40.84 209.549 41.24C209.416 41.64 209.269 42.1867 209.109 42.88C208.949 43.5733 208.869 44.56 208.869 45.84C208.869 47.12 209.376 47.76 210.389 47.76C211.509 47.76 212.549 47.32 213.509 46.44C214.469 45.5333 215.322 44.3733 216.069 42.96C216.816 41.5467 217.389 40.04 217.789 38.44C218.216 36.8133 218.429 35.28 218.429 33.84C218.429 32.9067 218.256 32.2533 217.909 31.88C217.562 31.48 216.936 31.28 216.029 31.28C215.096 31.28 214.122 31.6 213.109 32.24C212.122 32.8533 211.296 33.6933 210.629 34.76C209.962 35.8267 209.629 37.0267 209.629 38.36C209.629 38.6533 209.602 38.9333 209.549 39.2ZM227.431 51.76C227.004 51.76 226.644 51.5867 226.351 51.24C226.058 50.8933 225.911 50.4133 225.911 49.8C225.911 49.3467 226.004 48.6 226.191 47.56C226.404 46.4933 226.631 45.2533 226.871 43.84C227.138 42.4267 227.364 40.96 227.551 39.44C227.738 37.8933 227.831 36.4133 227.831 35C227.831 34.3067 228.004 33.8 228.351 33.48C228.724 33.1333 229.138 32.96 229.591 32.96C230.018 32.96 230.338 33.2267 230.551 33.76C230.764 34.2933 230.804 35.36 230.671 36.96C231.898 34.24 233.244 32.0533 234.711 30.4C236.204 28.72 237.684 27.52 239.151 26.8C240.618 26.0533 241.938 25.68 243.111 25.68C243.884 25.68 244.444 25.84 244.791 26.16C245.164 26.4533 245.351 26.7867 245.351 27.16C245.351 27.6667 245.138 28.0667 244.711 28.36C244.311 28.6267 243.604 28.9467 242.591 29.32C241.418 29.7733 240.338 30.3067 239.351 30.92C238.391 31.5067 237.471 32.28 236.591 33.24C235.738 34.2 234.898 35.4267 234.071 36.92C233.244 38.3867 232.418 40.2 231.591 42.36C230.764 44.52 229.884 47.12 228.951 50.16C228.791 50.7467 228.578 51.16 228.311 51.4C228.071 51.64 227.778 51.76 227.431 51.76Z" fill="#231711"/>
</svg>
