<svg width="513" height="513" viewBox="0 0 513 513" fill="none" xmlns="http://www.w3.org/2000/svg">
<path d="M432.167 96.1002H336.167V72.1002C336.167 61.4916 331.953 51.3174 324.452 43.8159C316.95 36.3145 306.776 32.1002 296.167 32.1002H216.167C205.559 32.1002 195.385 36.3145 187.883 43.8159C180.382 51.3174 176.167 61.4916 176.167 72.1002V96.1002H80.1675C75.924 96.1002 71.8544 97.7859 68.8538 100.787C65.8532 103.787 64.1675 107.857 64.1675 112.1C64.1675 116.344 65.8532 120.413 68.8538 123.414C71.8544 126.415 75.924 128.1 80.1675 128.1H97.1675L116.167 433.02C117.587 459.87 138.167 480.1 164.167 480.1H348.167C374.297 480.1 394.467 460.32 396.167 433.1L415.167 128.1H432.167C436.411 128.1 440.481 126.415 443.481 123.414C446.482 120.413 448.167 116.344 448.167 112.1C448.167 107.857 446.482 103.787 443.481 100.787C440.481 97.7859 436.411 96.1002 432.167 96.1002ZM192.737 416.1H192.167C188.021 416.103 184.035 414.496 181.051 411.617C178.066 408.739 176.315 404.814 176.167 400.67L168.167 176.67C168.016 172.427 169.557 168.297 172.451 165.19C175.344 162.082 179.354 160.251 183.597 160.1C187.841 159.949 191.971 161.49 195.078 164.383C198.186 167.277 200.016 171.287 200.167 175.53L208.167 399.53C208.244 401.632 207.905 403.728 207.17 405.698C206.436 407.668 205.32 409.475 203.887 411.014C202.454 412.553 200.732 413.794 198.819 414.667C196.906 415.54 194.839 416.027 192.737 416.1ZM272.167 400.1C272.167 404.344 270.482 408.413 267.481 411.414C264.481 414.415 260.411 416.1 256.167 416.1C251.924 416.1 247.854 414.415 244.854 411.414C241.853 408.413 240.167 404.344 240.167 400.1V176.1C240.167 171.857 241.853 167.787 244.854 164.787C247.854 161.786 251.924 160.1 256.167 160.1C260.411 160.1 264.481 161.786 267.481 164.787C270.482 167.787 272.167 171.857 272.167 176.1V400.1ZM304.167 96.1002H208.167V72.1002C208.155 71.0463 208.354 70.0006 208.752 69.0245C209.15 68.0485 209.738 67.1618 210.484 66.4165C211.229 65.6712 212.116 65.0824 213.092 64.6846C214.068 64.2868 215.114 64.0882 216.167 64.1002H296.167C297.221 64.0882 298.267 64.2868 299.243 64.6846C300.219 65.0824 301.106 65.6712 301.851 66.4165C302.597 67.1618 303.185 68.0485 303.583 69.0245C303.981 70.0006 304.18 71.0463 304.167 72.1002V96.1002ZM336.167 400.67C336.02 404.814 334.269 408.739 331.284 411.617C328.3 414.496 324.314 416.103 320.167 416.1H319.587C317.487 416.025 315.421 415.537 313.509 414.664C311.597 413.791 309.876 412.549 308.444 411.01C307.012 409.472 305.897 407.666 305.164 405.696C304.43 403.726 304.091 401.631 304.167 399.53L312.167 175.53C312.242 173.429 312.73 171.363 313.604 169.451C314.477 167.538 315.718 165.816 317.257 164.383C318.796 162.951 320.601 161.835 322.571 161.1C324.541 160.365 326.636 160.025 328.737 160.1C330.839 160.175 332.904 160.663 334.817 161.536C336.73 162.41 338.451 163.651 339.884 165.19C341.317 166.728 342.433 168.534 343.168 170.504C343.903 172.474 344.242 174.569 344.167 176.67L336.167 400.67Z" fill="black"/>
</svg>
