<svg width="371" height="293" viewBox="0 0 371 293" fill="none" xmlns="http://www.w3.org/2000/svg">
<path d="M185.5 224.688C221.485 224.688 250.656 195.516 250.656 159.531C250.656 123.546 221.485 94.375 185.5 94.375C149.515 94.375 120.344 123.546 120.344 159.531C120.344 195.516 149.515 224.688 185.5 224.688Z" stroke="#23171177" stroke-width="32" stroke-miterlimit="10"/>
<path d="M262.498 59.0929L240.818 24.837C236.249 19.5105 229.985 16.1875 222.965 16.1875H148.035C141.015 16.1875 134.751 19.5105 130.182 24.837L108.502 59.0929C103.933 64.4276 98.044 68.3125 91.0234 68.3125H42.1562C35.244 68.3125 28.6149 71.0584 23.7273 75.946C18.8396 80.8337 16.0938 87.4628 16.0938 94.375V250.75C16.0938 257.662 18.8396 264.291 23.7273 269.179C28.6149 274.067 35.244 276.812 42.1562 276.812H328.844C335.756 276.812 342.385 274.067 347.273 269.179C352.16 264.291 354.906 257.662 354.906 250.75V94.375C354.906 87.4628 352.16 80.8337 347.273 75.946C342.385 71.0584 335.756 68.3125 328.844 68.3125H280.791C273.746 68.3125 267.067 64.4276 262.498 59.0929Z" stroke="#23171177" stroke-width="32" stroke-linecap="round" stroke-linejoin="round"/>
</svg>
