<svg width="529" height="338" viewBox="0 0 529 338" fill="none" xmlns="http://www.w3.org/2000/svg">
<path d="M185.5 269.688C221.485 269.688 250.656 240.516 250.656 204.531C250.656 168.546 221.485 139.375 185.5 139.375C149.515 139.375 120.344 168.546 120.344 204.531C120.344 240.516 149.515 269.688 185.5 269.688Z" stroke="black" stroke-width="32" stroke-miterlimit="10"/>
<path d="M77.9922 111.684V93.7656H58.4453V111.684" stroke="black" stroke-width="32" stroke-linecap="round" stroke-linejoin="round"/>
<path d="M262.498 104.093L240.818 69.837C236.249 64.5105 229.985 61.1875 222.965 61.1875H148.035C141.015 61.1875 134.751 64.5105 130.182 69.837L108.502 104.093C103.933 109.428 98.044 113.312 91.0234 113.312H42.1562C35.244 113.312 28.6149 116.058 23.7273 120.946C18.8396 125.834 16.0938 132.463 16.0938 139.375V295.75C16.0938 302.662 18.8396 309.291 23.7273 314.179C28.6149 319.067 35.244 321.812 42.1562 321.812H328.844C335.756 321.812 342.385 319.067 347.273 314.179C352.16 309.291 354.906 302.662 354.906 295.75V139.375C354.906 132.463 352.16 125.834 347.273 120.946C342.385 116.058 335.756 113.312 328.844 113.312H280.791C273.746 113.312 267.067 109.428 262.498 104.093Z" stroke="black" stroke-width="32" stroke-linecap="round" stroke-linejoin="round"/>
<path d="M418.815 219.141C479.298 219.141 528.334 170.105 528.334 109.622C528.334 49.1394 479.298 0.103516 418.815 0.103516C358.333 0.103516 309.297 49.1394 309.297 109.622C309.297 170.105 358.333 219.141 418.815 219.141ZM370.711 107.174C371.491 106.388 372.417 105.764 373.438 105.336C374.458 104.908 375.553 104.686 376.659 104.682C377.766 104.677 378.862 104.891 379.886 105.31C380.91 105.73 381.841 106.347 382.627 107.126L410.391 134.674V64.3403C410.391 62.106 411.278 59.9632 412.858 58.3833C414.438 56.8034 416.581 55.9158 418.815 55.9158C421.05 55.9158 423.192 56.8034 424.772 58.3833C426.352 59.9632 427.24 62.106 427.24 64.3403V134.674L455.004 107.126C456.592 105.552 458.74 104.674 460.975 104.684C463.211 104.694 465.351 105.591 466.925 107.179C468.498 108.767 469.377 110.915 469.367 113.15C469.357 115.386 468.46 117.526 466.872 119.1L424.749 160.901C423.171 162.467 421.038 163.345 418.815 163.345C416.592 163.345 414.459 162.467 412.881 160.901L370.759 119.1C369.972 118.32 369.346 117.393 368.917 116.372C368.489 115.35 368.266 114.254 368.262 113.146C368.257 112.039 368.471 110.941 368.892 109.916C369.312 108.891 369.931 107.959 370.711 107.174Z" fill="black"/>
</svg>
